<mxfile host="app.diagrams.net" modified="2024-04-26T20:22:54.360Z" agent="Mozilla/5.0 (Windows NT 10.0; Win64; x64) AppleWebKit/537.36 (KHTML, like Gecko) Chrome/124.0.0.0 Safari/537.36" etag="o-VbwDY7HSpc46Pf3D1A" version="24.3.0" type="github">
  <diagram id="07fea595-8f29-1299-0266-81d95cde20df" name="Page-1">
    <mxGraphModel dx="2856" dy="955" grid="1" gridSize="10" guides="1" tooltips="1" connect="1" arrows="1" fold="1" page="1" pageScale="1" pageWidth="1169" pageHeight="827" background="#ffffff" math="0" shadow="0">
      <root>
        <mxCell id="0" />
        <mxCell id="1" parent="0" />
        <mxCell id="170" value="&lt;font style=&quot;font-size: 18px;&quot; color=&quot;#23497d&quot;&gt;Hardware&lt;/font&gt;" style="swimlane;whiteSpace=wrap;fillColor=none;swimlaneFillColor=#BAC8D3;fontColor=#2F5B7C;fontFamily=Tahoma;html=1;strokeColor=none;opacity=50;shadow=0;startSize=23;rounded=0;" parent="1" vertex="1">
          <mxGeometry y="30" width="300" height="740" as="geometry">
            <mxRectangle x="20" y="20" width="80" height="23" as="alternateBounds" />
          </mxGeometry>
        </mxCell>
        <mxCell id="H-EAbAuf7KAKMyQV5KaN-264" style="edgeStyle=orthogonalEdgeStyle;orthogonalLoop=1;jettySize=auto;html=1;exitX=0.25;exitY=1;exitDx=0;exitDy=0;entryX=0.5;entryY=0;entryDx=0;entryDy=0;startArrow=classic;startFill=1;strokeWidth=4;shadow=1;" edge="1" parent="170" source="171" target="H-EAbAuf7KAKMyQV5KaN-242">
          <mxGeometry relative="1" as="geometry" />
        </mxCell>
        <mxCell id="H-EAbAuf7KAKMyQV5KaN-265" style="edgeStyle=orthogonalEdgeStyle;orthogonalLoop=1;jettySize=auto;html=1;exitX=0.75;exitY=1;exitDx=0;exitDy=0;entryX=0.5;entryY=0;entryDx=0;entryDy=0;strokeWidth=4;shadow=1;" edge="1" parent="170" source="171" target="172">
          <mxGeometry relative="1" as="geometry" />
        </mxCell>
        <mxCell id="171" value="&lt;font style=&quot;font-size: 18px;&quot;&gt;Microcontroller:&lt;br&gt;ESP32&lt;/font&gt;" style="whiteSpace=wrap;shadow=1;fontColor=#FFFFFF;fontFamily=Helvetica;fontStyle=0;html=1;fontSize=12;plain-purple;strokeColor=none;fillColor=#2f5b7c;gradientColor=none;spacing=6;verticalAlign=middle;rounded=0;" parent="170" vertex="1">
          <mxGeometry x="35.45" y="50" width="212.73" height="120" as="geometry" />
        </mxCell>
        <mxCell id="172" value="&lt;font style=&quot;font-size: 18px;&quot;&gt;Relays:&lt;br&gt;Songle SRD&amp;nbsp;&lt;/font&gt;" style="whiteSpace=wrap;strokeColor=none;fillColor=#2f5b7c;shadow=1;fontColor=#FFFFFF;fontFamily=Helvetica;fontStyle=0;html=1;fontSize=12;spacing=6;verticalAlign=middle;rounded=0;" parent="170" vertex="1">
          <mxGeometry x="147.72" y="230" width="108.18" height="120" as="geometry" />
        </mxCell>
        <mxCell id="173" value="&lt;font style=&quot;font-size: 18px;&quot;&gt;Heating appliances&lt;/font&gt;" style="whiteSpace=wrap;strokeColor=none;fillColor=#2f5b7c;shadow=1;fontColor=#FFFFFF;fontFamily=Helvetica;fontStyle=0;html=1;fontSize=12;spacing=6;verticalAlign=middle;rounded=0;" parent="170" vertex="1">
          <mxGeometry x="35.45" y="384" width="212.73" height="120" as="geometry" />
        </mxCell>
        <mxCell id="H-EAbAuf7KAKMyQV5KaN-242" value="&lt;font style=&quot;font-size: 18px;&quot;&gt;Sensors: DS18B20&lt;/font&gt;" style="whiteSpace=wrap;shadow=1;fontColor=#FFFFFF;fontFamily=Helvetica;fontStyle=0;html=1;fontSize=12;plain-purple;strokeColor=none;fillColor=#2f5b7c;gradientColor=none;spacing=6;verticalAlign=middle;rounded=0;" vertex="1" parent="170">
          <mxGeometry x="27.720000000000002" y="230" width="104.55" height="120" as="geometry" />
        </mxCell>
        <mxCell id="183" value="&lt;font style=&quot;font-size: 18px;&quot; color=&quot;#23497d&quot;&gt;API&lt;/font&gt;" style="swimlane;whiteSpace=wrap;fillColor=none;swimlaneFillColor=#BAC8D3;fontColor=#2F5B7C;fontFamily=Tahoma;html=1;strokeColor=none;opacity=25;startSize=23;shadow=0;rounded=0;" parent="170" vertex="1">
          <mxGeometry x="283.6363636363636" width="308.1836363636363" height="740" as="geometry">
            <mxRectangle x="20" y="20" width="80" height="23" as="alternateBounds" />
          </mxGeometry>
        </mxCell>
        <mxCell id="184" value="&lt;font style=&quot;font-size: 18px;&quot;&gt;Home Automation API&lt;/font&gt;" style="whiteSpace=wrap;shadow=1;fontColor=#FFFFFF;fontFamily=Helvetica;fontStyle=0;html=1;fontSize=12;plain-purple;strokeColor=none;fillColor=#2f5b7c;gradientColor=none;spacing=6;verticalAlign=middle;rounded=0;" parent="183" vertex="1">
          <mxGeometry x="35.45" y="50" width="212.73" height="120" as="geometry" />
        </mxCell>
        <mxCell id="H-EAbAuf7KAKMyQV5KaN-260" value="&lt;font style=&quot;font-size: 18px;&quot;&gt;MQTT&lt;/font&gt;" style="text;html=1;align=center;verticalAlign=middle;whiteSpace=wrap;rounded=0;" vertex="1" parent="183">
          <mxGeometry x="-29.99636363636361" y="70" width="60" height="30" as="geometry" />
        </mxCell>
        <mxCell id="H-EAbAuf7KAKMyQV5KaN-281" value="&lt;font style=&quot;font-size: 18px;&quot;&gt;MySQL&lt;/font&gt;" style="text;html=1;align=center;verticalAlign=middle;whiteSpace=wrap;rounded=0;" vertex="1" parent="183">
          <mxGeometry x="156.36363636363637" y="210" width="60" height="30" as="geometry" />
        </mxCell>
        <mxCell id="H-EAbAuf7KAKMyQV5KaN-287" value="&lt;span style=&quot;font-size: 14px;&quot;&gt;&lt;font color=&quot;#ffffff&quot;&gt;Python 3&lt;/font&gt;&lt;/span&gt;" style="text;html=1;align=center;verticalAlign=middle;whiteSpace=wrap;rounded=0;fontFamily=Courier New;" vertex="1" parent="183">
          <mxGeometry x="-3.637272727272787" y="50" width="149.54" height="30" as="geometry" />
        </mxCell>
        <mxCell id="H-EAbAuf7KAKMyQV5KaN-259" style="edgeStyle=orthogonalEdgeStyle;rounded=0;orthogonalLoop=1;jettySize=auto;html=1;exitX=0;exitY=0.5;exitDx=0;exitDy=0;curved=0;strokeWidth=4;jumpSize=6;shadow=1;flowAnimation=0;startArrow=classic;startFill=1;" edge="1" parent="170" source="184" target="171">
          <mxGeometry relative="1" as="geometry" />
        </mxCell>
        <mxCell id="H-EAbAuf7KAKMyQV5KaN-263" style="edgeStyle=orthogonalEdgeStyle;orthogonalLoop=1;jettySize=auto;html=1;exitX=0.5;exitY=1;exitDx=0;exitDy=0;entryX=0.792;entryY=-0.008;entryDx=0;entryDy=0;entryPerimeter=0;strokeWidth=4;shadow=1;" edge="1" parent="170" source="172" target="173">
          <mxGeometry relative="1" as="geometry" />
        </mxCell>
        <mxCell id="H-EAbAuf7KAKMyQV5KaN-288" value="&lt;span style=&quot;font-size: 14px;&quot;&gt;&lt;font color=&quot;#ffffff&quot;&gt;C++&lt;/font&gt;&lt;/span&gt;" style="text;html=1;align=center;verticalAlign=middle;whiteSpace=wrap;rounded=0;fillColor=none;strokeWidth=1;shadow=0;glass=0;fontFamily=Courier New;" vertex="1" parent="170">
          <mxGeometry x="-17.270909090909186" y="50" width="149.54" height="30" as="geometry" />
        </mxCell>
        <mxCell id="187" value="&lt;font style=&quot;font-size: 18px;&quot; color=&quot;#23497d&quot;&gt;Hosting&lt;/font&gt;" style="swimlane;whiteSpace=wrap;fillColor=none;swimlaneFillColor=#BAC8D3;fontColor=#2F5B7C;fontFamily=Tahoma;html=1;strokeColor=none;opacity=50;shadow=0;startSize=23;rounded=0;" parent="1" vertex="1">
          <mxGeometry x="567.2727272727273" y="30" width="308.17727272727257" height="740" as="geometry">
            <mxRectangle x="20" y="20" width="80" height="23" as="alternateBounds" />
          </mxGeometry>
        </mxCell>
        <mxCell id="195" value="&lt;font style=&quot;font-size: 18px;&quot;&gt;EC2&lt;br&gt;(Elastic Compute&lt;br&gt;Cloud)&lt;/font&gt;" style="whiteSpace=wrap;strokeColor=none;fillColor=#2f5b7c;shadow=1;fontColor=#FFFFFF;fontFamily=Helvetica;fontStyle=0;html=1;fontSize=12;spacing=6;verticalAlign=middle;rounded=0;" parent="187" vertex="1">
          <mxGeometry x="35.45" y="50" width="212.73" height="120" as="geometry" />
        </mxCell>
        <mxCell id="H-EAbAuf7KAKMyQV5KaN-234" value="&lt;font style=&quot;font-size: 18px;&quot;&gt;Amazon S3&lt;br&gt;(Simple Storage Service)&lt;/font&gt;" style="whiteSpace=wrap;strokeColor=none;fillColor=#2f5b7c;shadow=1;fontColor=#FFFFFF;fontFamily=Helvetica;fontStyle=0;html=1;fontSize=12;spacing=6;verticalAlign=middle;rounded=0;" vertex="1" parent="187">
          <mxGeometry x="35.450000000000045" y="370" width="212.73" height="120" as="geometry" />
        </mxCell>
        <mxCell id="H-EAbAuf7KAKMyQV5KaN-280" style="edgeStyle=orthogonalEdgeStyle;orthogonalLoop=1;jettySize=auto;html=1;exitX=0.5;exitY=0;exitDx=0;exitDy=0;entryX=0.5;entryY=1;entryDx=0;entryDy=0;strokeWidth=4;startArrow=classic;startFill=1;shadow=1;" edge="1" parent="187" source="H-EAbAuf7KAKMyQV5KaN-249" target="195">
          <mxGeometry relative="1" as="geometry" />
        </mxCell>
        <mxCell id="H-EAbAuf7KAKMyQV5KaN-249" value="&lt;font style=&quot;font-size: 18px;&quot;&gt;Amazon RDS&lt;br&gt;(Relational Database Service)&lt;/font&gt;" style="whiteSpace=wrap;strokeColor=none;fillColor=#2f5b7c;shadow=1;fontColor=#FFFFFF;fontFamily=Helvetica;fontStyle=0;html=1;fontSize=12;spacing=6;verticalAlign=middle;rounded=0;" vertex="1" parent="187">
          <mxGeometry x="35.450000000000045" y="210" width="212.73" height="120" as="geometry" />
        </mxCell>
        <mxCell id="H-EAbAuf7KAKMyQV5KaN-256" style="edgeStyle=orthogonalEdgeStyle;rounded=0;orthogonalLoop=1;jettySize=auto;html=1;exitX=0;exitY=0.75;exitDx=0;exitDy=0;entryX=0;entryY=0.75;entryDx=0;entryDy=0;curved=1;strokeWidth=3;jumpSize=6;shadow=1;flowAnimation=0;dashed=1;dashPattern=1 1;" edge="1" parent="187" source="H-EAbAuf7KAKMyQV5KaN-232" target="195">
          <mxGeometry relative="1" as="geometry">
            <Array as="points">
              <mxPoint x="-67" y="620" />
              <mxPoint x="-67" y="140" />
            </Array>
          </mxGeometry>
        </mxCell>
        <mxCell id="H-EAbAuf7KAKMyQV5KaN-278" style="edgeStyle=orthogonalEdgeStyle;orthogonalLoop=1;jettySize=auto;html=1;exitX=0;exitY=0.5;exitDx=0;exitDy=0;entryX=0;entryY=0.5;entryDx=0;entryDy=0;shadow=1;strokeWidth=3;dashed=1;dashPattern=1 1;curved=1;" edge="1" parent="187" source="H-EAbAuf7KAKMyQV5KaN-232" target="H-EAbAuf7KAKMyQV5KaN-249">
          <mxGeometry relative="1" as="geometry">
            <Array as="points">
              <mxPoint x="-47" y="590" />
              <mxPoint x="-47" y="270" />
            </Array>
          </mxGeometry>
        </mxCell>
        <mxCell id="H-EAbAuf7KAKMyQV5KaN-279" style="edgeStyle=orthogonalEdgeStyle;orthogonalLoop=1;jettySize=auto;html=1;exitX=0;exitY=0.25;exitDx=0;exitDy=0;entryX=0;entryY=0.5;entryDx=0;entryDy=0;strokeWidth=3;dashed=1;dashPattern=1 1;curved=1;shadow=1;" edge="1" parent="187" source="H-EAbAuf7KAKMyQV5KaN-232" target="H-EAbAuf7KAKMyQV5KaN-234">
          <mxGeometry relative="1" as="geometry">
            <Array as="points">
              <mxPoint x="-27" y="560" />
              <mxPoint x="-27" y="430" />
            </Array>
          </mxGeometry>
        </mxCell>
        <mxCell id="H-EAbAuf7KAKMyQV5KaN-232" value="&lt;font style=&quot;font-size: 18px;&quot;&gt;AWS&lt;br&gt;(Amazon Web Services)&lt;/font&gt;" style="whiteSpace=wrap;strokeColor=default;fillColor=#2f5b7c;shadow=1;fontColor=#FFFFFF;fontFamily=Helvetica;fontStyle=0;html=1;fontSize=12;spacing=6;verticalAlign=middle;rounded=0;gradientColor=none;glass=0;perimeterSpacing=0;strokeWidth=8;" vertex="1" parent="187">
          <mxGeometry x="35.45000000000002" y="530" width="212.73" height="120" as="geometry" />
        </mxCell>
        <mxCell id="H-EAbAuf7KAKMyQV5KaN-283" value="&lt;font style=&quot;font-size: 18px;&quot;&gt;HTTPS&lt;/font&gt;" style="text;html=1;align=center;verticalAlign=middle;whiteSpace=wrap;rounded=0;" vertex="1" parent="187">
          <mxGeometry x="-30.272727272727337" y="69" width="60" height="30" as="geometry" />
        </mxCell>
        <mxCell id="H-EAbAuf7KAKMyQV5KaN-285" value="&lt;font style=&quot;font-size: 18px;&quot;&gt;HTTPS&lt;/font&gt;" style="text;html=1;align=center;verticalAlign=middle;whiteSpace=wrap;rounded=0;" vertex="1" parent="187">
          <mxGeometry x="251.72727272727258" y="69" width="60" height="30" as="geometry" />
        </mxCell>
        <mxCell id="193" value="&lt;font style=&quot;font-size: 18px;&quot; color=&quot;#23497d&quot;&gt;UI&lt;/font&gt;" style="swimlane;whiteSpace=wrap;fillColor=none;swimlaneFillColor=#BAC8D3;fontColor=#2F5B7C;fontFamily=Tahoma;html=1;strokeColor=none;opacity=25;shadow=0;startSize=23;rounded=0;" parent="1" vertex="1">
          <mxGeometry x="850.9090909090909" y="30" width="283.6363636363636" height="740" as="geometry">
            <mxRectangle x="850.9090909090909" y="30" width="80" height="23" as="alternateBounds" />
          </mxGeometry>
        </mxCell>
        <mxCell id="194" value="&lt;font style=&quot;font-size: 18px;&quot;&gt;Web Application&lt;/font&gt;" style="whiteSpace=wrap;strokeColor=none;fillColor=#2f5b7c;shadow=1;fontColor=#FFFFFF;fontFamily=Helvetica;fontStyle=0;html=1;fontSize=12;spacing=6;verticalAlign=middle;rounded=0;" parent="193" vertex="1">
          <mxGeometry x="29.09" y="50" width="212.73" height="120" as="geometry" />
        </mxCell>
        <mxCell id="H-EAbAuf7KAKMyQV5KaN-237" style="edgeStyle=orthogonalEdgeStyle;rounded=0;orthogonalLoop=1;jettySize=auto;html=1;exitX=0.5;exitY=0;exitDx=0;exitDy=0;entryX=0.5;entryY=1;entryDx=0;entryDy=0;shadow=1;curved=1;strokeWidth=3;jumpSize=6;flowAnimation=0;dashed=1;dashPattern=1 1;" edge="1" parent="193" source="H-EAbAuf7KAKMyQV5KaN-236" target="194">
          <mxGeometry relative="1" as="geometry">
            <Array as="points">
              <mxPoint x="219" y="530" />
              <mxPoint x="219" y="170" />
            </Array>
          </mxGeometry>
        </mxCell>
        <mxCell id="H-EAbAuf7KAKMyQV5KaN-236" value="&lt;font style=&quot;font-size: 18px;&quot;&gt;React&lt;/font&gt;" style="whiteSpace=wrap;strokeColor=default;fillColor=#2f5b7c;shadow=1;fontColor=#FFFFFF;fontFamily=Helvetica;fontStyle=0;html=1;fontSize=12;spacing=6;verticalAlign=middle;rounded=0;gradientColor=none;strokeWidth=8;" vertex="1" parent="193">
          <mxGeometry x="29.090000000000032" y="530" width="212.73" height="120" as="geometry" />
        </mxCell>
        <mxCell id="H-EAbAuf7KAKMyQV5KaN-286" value="&lt;span style=&quot;font-size: 14px;&quot;&gt;&lt;font color=&quot;#ffffff&quot;&gt;HTML, CSS, JS&lt;/font&gt;&lt;/span&gt;" style="text;html=1;align=center;verticalAlign=middle;whiteSpace=wrap;rounded=0;fontFamily=Courier New;" vertex="1" parent="193">
          <mxGeometry x="19.089999999999996" y="530" width="149.54" height="30" as="geometry" />
        </mxCell>
        <mxCell id="H-EAbAuf7KAKMyQV5KaN-241" style="edgeStyle=orthogonalEdgeStyle;rounded=0;orthogonalLoop=1;jettySize=auto;html=1;exitX=0;exitY=0.5;exitDx=0;exitDy=0;entryX=1;entryY=0.5;entryDx=0;entryDy=0;curved=0;strokeWidth=4;jumpSize=6;shadow=1;flowAnimation=0;" edge="1" parent="1" source="194" target="195">
          <mxGeometry relative="1" as="geometry" />
        </mxCell>
        <mxCell id="H-EAbAuf7KAKMyQV5KaN-248" style="edgeStyle=orthogonalEdgeStyle;rounded=0;orthogonalLoop=1;jettySize=auto;html=1;exitX=1;exitY=0.5;exitDx=0;exitDy=0;entryX=0;entryY=0.75;entryDx=0;entryDy=0;curved=0;strokeWidth=4;jumpSize=6;shadow=1;flowAnimation=0;" edge="1" parent="1" source="H-EAbAuf7KAKMyQV5KaN-234" target="194">
          <mxGeometry relative="1" as="geometry" />
        </mxCell>
        <mxCell id="H-EAbAuf7KAKMyQV5KaN-258" style="edgeStyle=orthogonalEdgeStyle;rounded=0;orthogonalLoop=1;jettySize=auto;html=1;exitX=0;exitY=0.5;exitDx=0;exitDy=0;entryX=1;entryY=0.5;entryDx=0;entryDy=0;curved=0;strokeWidth=4;jumpSize=6;shadow=1;flowAnimation=0;startArrow=classic;startFill=1;" edge="1" parent="1" source="195" target="184">
          <mxGeometry relative="1" as="geometry" />
        </mxCell>
        <mxCell id="H-EAbAuf7KAKMyQV5KaN-261" style="edgeStyle=orthogonalEdgeStyle;orthogonalLoop=1;jettySize=auto;html=1;exitX=0.5;exitY=1;exitDx=0;exitDy=0;entryX=0;entryY=0.25;entryDx=0;entryDy=0;strokeWidth=4;shadow=1;startArrow=classic;startFill=1;rounded=1;curved=0;" edge="1" parent="1" source="184" target="H-EAbAuf7KAKMyQV5KaN-249">
          <mxGeometry relative="1" as="geometry" />
        </mxCell>
        <mxCell id="H-EAbAuf7KAKMyQV5KaN-284" value="&lt;font style=&quot;font-size: 18px;&quot;&gt;MySQL&lt;/font&gt;" style="text;html=1;align=center;verticalAlign=middle;whiteSpace=wrap;rounded=0;" vertex="1" parent="1">
          <mxGeometry x="723" y="205" width="60" height="30" as="geometry" />
        </mxCell>
      </root>
    </mxGraphModel>
  </diagram>
</mxfile>
